<svg width="82" height="82" viewBox="0 0 82 82" fill="none" xmlns="http://www.w3.org/2000/svg">
<path d="M72.8775 44.1092C73.185 49.405 70.7592 54.4958 66.42 57.605L69.0508 62.6958C69.8367 64.2333 69.9392 66.0442 69.2558 67.65C68.6067 69.2558 67.2742 70.52 65.6342 71.0667L62.935 71.9208C61.811 72.298 60.5981 72.3199 59.4611 71.9837C58.3241 71.6475 57.3182 70.9695 56.58 70.0417L49.3367 61.5C46.2958 60.9875 43.4258 59.6892 41 57.7417C39.2917 58.2542 37.5833 58.5275 35.875 58.5275C32.8683 58.5275 29.8617 57.605 27.3333 55.8283C25.5225 56.375 23.6775 56.6142 21.7983 56.58C19.0992 56.6142 16.4342 56.0675 13.94 55.0425C11.538 53.973 9.48557 52.249 8.01734 50.0678C6.54911 47.8866 5.72439 45.3362 5.63751 42.7083C5.36418 40.2483 5.77418 37.7542 6.83335 35.4992C5.84251 32.9367 5.74001 30.135 6.59418 27.5383C7.85835 24.2925 10.25 21.5933 13.2225 19.885C15.2042 14.1108 20.7733 10.25 26.8892 10.66C32.3558 5.535 40.7267 4.98833 46.8083 9.39583C48.2433 9.02 49.7467 8.815 51.25 8.815C55.8967 8.7125 60.3042 10.7625 63.2083 14.4183C70.1783 16.2292 75.1667 22.4475 75.44 29.6908C75.6108 33.4833 74.5858 37.2075 72.5017 40.385C72.7408 41.615 72.8775 42.845 72.8775 44.1092ZM55.7942 39.2917C57.7417 39.5308 59.2792 41 59.2792 42.9475C59.2792 43.8537 58.9192 44.7227 58.2785 45.3634C57.6377 46.0042 56.7687 46.3642 55.8625 46.3642H53.71C52.6167 49.4392 50.7033 52.1383 48.175 54.1883C49.0292 54.4958 49.9175 54.6667 50.8058 54.9058C68.3333 54.6667 66.2833 43.9725 66.2833 43.8017C66.2393 42.6393 65.9666 41.497 65.4807 40.4402C64.9948 39.3833 64.3054 38.4326 63.4517 37.6424C62.5981 36.8523 61.5971 36.2382 60.5059 35.8352C59.4147 35.4323 58.2548 35.2484 57.0925 35.2942C56.1864 35.2942 55.3173 34.9342 54.6766 34.2934C54.0358 33.6527 53.6758 32.7837 53.6758 31.8775C53.6758 30.9713 54.0358 30.1023 54.6766 29.4616C55.3173 28.8208 56.1864 28.4608 57.0925 28.4608C61.295 28.5633 65.3267 30.135 68.47 32.9025C68.6409 31.9117 68.7434 30.8867 68.7434 29.8617C68.5383 25.625 66.625 21.935 58.9375 21.2175C54.6667 11.1042 43.9042 16.7075 43.9042 19.8508C43.8017 20.6367 44.6217 22.3108 44.7583 22.4133C45.6645 22.4133 46.5335 22.7733 47.1743 23.4141C47.815 24.0548 48.175 24.9238 48.175 25.83C48.175 27.7092 46.6375 29.2467 44.7583 29.2467C42.9475 29.1783 41.2392 28.495 39.8725 27.3333C38.2325 28.3925 36.3533 29.0417 34.4058 29.2467C32.4583 29.4175 30.8525 28.0508 30.75 26.1717C30.6881 25.7255 30.7177 25.2714 30.8372 24.8371C30.9567 24.4028 31.1634 23.9974 31.4448 23.6456C31.7262 23.2939 32.0763 23.0032 32.4738 22.7913C32.8713 22.5795 33.3078 22.4508 33.7567 22.4133C34.3033 22.345 36.9683 21.935 36.9683 19.7825C36.9683 17.5275 37.8225 15.375 39.2917 13.6667C36.1483 12.8125 32.7658 13.94 29.3492 18.0742C23.0625 17.0833 20.5 17.9375 18.6208 24.6C15.375 26.2058 13.6667 27.3333 12.915 30.75C16.605 29.9983 20.3975 30.3058 23.9167 31.6042C25.625 32.2533 26.5817 34.1667 25.9325 36.0117C25.2833 37.7883 23.3017 38.6767 21.525 38.0275C19.0308 36.9342 16.2292 36.8658 13.6667 37.8225C12.5733 38.745 12.5733 40.6583 12.5733 42.1617C12.5733 44.69 13.8375 47.0475 15.99 48.4142C17.8008 49.3367 19.8167 49.815 21.8325 49.7808C21.32 48.8925 20.8758 47.97 20.5 47.0133C20.231 46.1355 20.313 45.1876 20.7286 44.3689C21.1442 43.5503 21.8611 42.9247 22.7285 42.6237C23.5958 42.3228 24.5461 42.37 25.3795 42.7553C26.2128 43.1407 26.8642 43.8342 27.1967 44.69C28.5633 48.585 32.0483 51.25 36.1483 51.6942C40.8292 51.455 44.9975 48.6875 47.0475 44.4167C47.8333 39.7017 51.6258 39.2917 55.7942 39.2917ZM62.6275 64.8142L60.5092 60.3725L58.0833 60.9192L61.5 65.19L62.6275 64.8142ZM46.74 35.3967C46.7697 34.5238 46.4641 33.6728 45.8858 33.0183C45.3076 32.3638 44.5007 31.9556 43.6308 31.8775C41.205 31.7408 38.8475 32.5608 37.0367 34.1667C35.0892 36.1483 34.0642 38.8817 34.1667 41.6492C34.1667 42.5553 34.5266 43.4244 35.1674 44.0651C35.8081 44.7059 36.6772 45.0658 37.5833 45.0658C39.5308 45.0658 41 43.5283 41 41.6492C41 40.7267 41.2392 39.8042 41.7858 39.0525C42.1958 38.7108 42.7083 38.54 43.255 38.54C45.1342 38.6425 46.74 37.2417 46.74 35.3967Z" fill="url(#paint0_linear_2_79)"/>
<defs>
<linearGradient id="paint0_linear_2_79" x1="5.55524" y1="39.3209" x2="75.4584" y2="39.3209" gradientUnits="userSpaceOnUse">
<stop stop-color="#6D1D7D"/>
<stop offset="1" stop-color="#5F0BE8"/>
</linearGradient>
</defs>
</svg>
