<svg width="55" height="55" viewBox="0 0 55 55" fill="none" xmlns="http://www.w3.org/2000/svg">
<path fill-rule="evenodd" clip-rule="evenodd" d="M30.2682 3.11103C31.7139 1.3771 34.5298 2.56203 34.3011 4.80835L32.6861 20.5875H45.75C46.1847 20.5877 46.6103 20.7117 46.977 20.945C47.3438 21.1783 47.6364 21.5113 47.8208 21.9049C48.0051 22.2985 48.0735 22.7366 48.0179 23.1676C47.9623 23.5987 47.785 24.0051 47.5068 24.339L24.6318 51.789C23.1861 53.5229 20.3702 52.338 20.599 50.0917L22.2139 34.3125H9.15002C8.71536 34.3124 8.28974 34.1884 7.92301 33.9551C7.55628 33.7217 7.26361 33.3888 7.07927 32.9951C6.89494 32.6015 6.82657 32.1635 6.88217 31.7324C6.93777 31.3013 7.11504 30.895 7.39322 30.561L30.2682 3.11103ZM14.0338 29.7375H26.2674C26.3953 29.7375 26.5217 29.7643 26.6386 29.8162C26.7555 29.8681 26.8602 29.9439 26.946 30.0387C27.0318 30.1336 27.0967 30.2453 27.1366 30.3668C27.1766 30.4883 27.1906 30.6168 27.1778 30.744L25.9128 43.108L40.8662 25.1625H28.6327C28.5048 25.1625 28.3783 25.1357 28.2614 25.0839C28.1446 25.032 28.0398 24.9562 27.9541 24.8613C27.8683 24.7665 27.8033 24.6547 27.7634 24.5333C27.7235 24.4118 27.7094 24.2833 27.7222 24.156L28.9872 11.7944L14.0338 29.7375Z" fill="white"/>
</svg>
