<svg width="75" height="75" viewBox="0 0 75 75" fill="none" xmlns="http://www.w3.org/2000/svg">
<path fill-rule="evenodd" clip-rule="evenodd" d="M57.8125 56.25C57.8125 55.8356 57.6479 55.4382 57.3549 55.1451C57.0618 54.8521 56.6644 54.6875 56.25 54.6875H18.75C18.3356 54.6875 17.9382 54.8521 17.6451 55.1451C17.3521 55.4382 17.1875 55.8356 17.1875 56.25C17.1875 56.6644 17.3521 57.0618 17.6451 57.3549C17.9382 57.6479 18.3356 57.8125 18.75 57.8125H56.25C56.6644 57.8125 57.0618 57.6479 57.3549 57.3549C57.6479 57.0618 57.8125 56.6644 57.8125 56.25Z" fill="white"/>
<path d="M46.875 35.9375H53.125C53.9879 35.9375 54.6875 36.6371 54.6875 37.5V56.25C54.6875 57.1129 53.9879 57.8125 53.125 57.8125H46.875C46.0121 57.8125 45.3125 57.1129 45.3125 56.25V37.5C45.3125 36.6371 46.0121 35.9375 46.875 35.9375Z" fill="white"/>
<path d="M34.375 17.1875H40.625C41.4879 17.1875 42.1875 17.8871 42.1875 18.75V56.25C42.1875 57.1129 41.4879 57.8125 40.625 57.8125H34.375C33.5121 57.8125 32.8125 57.1129 32.8125 56.25V18.75C32.8125 17.8871 33.5121 17.1875 34.375 17.1875Z" fill="white"/>
<path d="M21.875 26.5625H28.125C28.9879 26.5625 29.6875 27.2621 29.6875 28.125V56.25C29.6875 57.1129 28.9879 57.8125 28.125 57.8125H21.875C21.0121 57.8125 20.3125 57.1129 20.3125 56.25V28.125C20.3125 27.2621 21.0121 26.5625 21.875 26.5625Z" fill="white"/>
</svg>
