<svg width="50" height="50" viewBox="0 0 50 50" fill="none" xmlns="http://www.w3.org/2000/svg">
<g clip-path="url(#clip0_2_119)">
<path fill-rule="evenodd" clip-rule="evenodd" d="M6.71083 38.108C6.04739 38.7715 5.14756 39.1442 4.20931 39.1442C3.27106 39.1442 2.37124 38.7715 1.70779 38.108C1.04435 37.4446 0.671631 36.5448 0.671631 35.6065C0.671631 34.6683 1.04435 33.7684 1.70779 33.105L13.4923 21.324L13.5171 21.2992C14.4799 20.3562 15.774 19.828 17.1217 19.828C18.4695 19.828 19.7636 20.3562 20.7264 21.2992L20.7512 21.324L26.7654 27.3382L35.0637 18.5626L31.3866 14.8855C31.0162 14.5146 30.764 14.0423 30.6619 13.5282C30.5598 13.0141 30.6123 12.4813 30.8128 11.997C31.0133 11.5128 31.3528 11.0988 31.7885 10.8074C32.2241 10.516 32.7364 10.3602 33.2605 10.3597H46.1765C46.8798 10.3597 47.5543 10.6391 48.0516 11.1364C48.5489 11.6337 48.8283 12.3082 48.8283 13.0115V25.924C48.8278 26.4481 48.672 26.9603 48.3806 27.396C48.0892 27.8316 47.6752 28.1712 47.191 28.3717C46.7067 28.5722 46.1739 28.6247 45.6598 28.5226C45.1457 28.4205 44.6734 28.1683 44.3025 27.7979L40.0668 23.5621L30.5062 33.6778L30.4107 33.7732C29.4479 34.7163 28.1538 35.2445 26.8061 35.2445C25.4583 35.2445 24.1642 34.7163 23.2014 33.7732L23.1767 33.7485L17.12 27.6953L6.71083 38.108Z" fill="white"/>
</g>
<defs>
<clipPath id="clip0_2_119">
<rect width="49.5" height="49.5" fill="white"/>
</clipPath>
</defs>
</svg>
