<svg width="42" height="42" viewBox="0 0 42 42" fill="none" xmlns="http://www.w3.org/2000/svg">
<path d="M25.41 3.5C27.2107 3.5 28.9362 4.21575 30.2085 5.488L36.512 11.7915C37.142 12.4215 37.6418 13.1695 37.9828 13.9927C38.3238 14.8158 38.4993 15.6981 38.4993 16.5891C38.4993 17.4801 38.3238 18.3624 37.9828 19.1856C37.6418 20.0088 37.142 20.7567 36.512 21.3867L31.8867 26.012C30.7647 27.1329 29.2857 27.8258 27.7063 27.9702C26.1269 28.1147 24.5468 27.7018 23.24 26.803L23.0562 26.6665L12.7627 36.9618C11.9661 37.7557 10.9355 38.2729 9.82275 38.437L9.43775 38.4842L9.051 38.5H7C5.2255 38.5 3.73275 37.1717 3.51575 35.3097L3.5 35V32.949C3.5 31.717 3.934 30.5235 4.7775 29.519L5.03825 29.2373L5.76275 28.5127C6.09086 28.1845 6.53591 28.0001 7 28H8.75V26.25C8.75006 25.8214 8.90742 25.4077 9.19225 25.0873C9.47708 24.767 9.86956 24.5624 10.2952 24.5122L10.5 24.5H12.25V22.75C12.25 22.3654 12.3767 21.9914 12.6105 21.686L12.7627 21.511L15.3317 18.9403L15.1987 18.76C14.5 17.7432 14.09 16.556 14.0122 15.3247L14 14.9117C14 13.111 14.7157 11.3855 15.988 10.1132L20.6132 5.488C21.8856 4.216 23.6108 3.501 25.41 3.5ZM26.2762 12.25H26.2412C25.313 12.25 24.4228 12.6187 23.7664 13.2751C23.11 13.9315 22.7412 14.8217 22.7412 15.75C22.7412 16.6783 23.11 17.5685 23.7664 18.2249C24.4228 18.8813 25.313 19.25 26.2412 19.25H26.2762C27.2045 19.25 28.0947 18.8813 28.7511 18.2249C29.4075 17.5685 29.7762 16.6783 29.7762 15.75C29.7762 14.8217 29.4075 13.9315 28.7511 13.2751C28.0947 12.6187 27.2045 12.25 26.2762 12.25Z" fill="url(#paint0_linear_31_708)"/>
<defs>
<linearGradient id="paint0_linear_31_708" x1="3.5" y1="21" x2="38.4993" y2="21" gradientUnits="userSpaceOnUse">
<stop stop-color="#6D1D7D"/>
<stop offset="1" stop-color="#5F0BE8"/>
</linearGradient>
</defs>
</svg>
