<svg width="85" height="85" viewBox="0 0 85 85" fill="none" xmlns="http://www.w3.org/2000/svg">
<path d="M83.0078 45.8203C83.0078 46.877 82.588 47.8905 81.8408 48.6377C81.0936 49.3849 80.0802 49.8047 79.0234 49.8047C77.9667 49.8047 76.9533 49.3849 76.2061 48.6377C75.4588 47.8905 75.0391 46.877 75.0391 45.8203C75.0294 37.5456 71.738 29.6126 65.8869 23.7615C60.0358 17.9104 52.1028 14.619 43.8281 14.6094C36.4335 14.6173 29.344 17.5583 24.1152 22.7871C18.8864 28.0159 15.9454 35.1054 15.9375 42.5C15.9454 49.014 18.5366 55.259 23.1427 59.8651C27.7488 64.4712 33.9938 67.0624 40.5078 67.0703C46.1418 67.0642 51.5432 64.8234 55.527 60.8395C59.5109 56.8557 61.7517 51.4543 61.7578 45.8203C61.7525 41.0667 59.8618 36.5093 56.5005 33.1479C53.1392 29.7866 48.5818 27.8959 43.8281 27.8906C39.9548 27.895 36.2414 29.4356 33.5026 32.1745C30.7638 34.9133 29.2231 38.6267 29.2188 42.5C29.2188 45.494 30.4081 48.3655 32.5252 50.4826C34.6423 52.5997 37.5138 53.7891 40.5078 53.7891C42.6213 53.7891 44.6481 52.9495 46.1426 51.4551C47.637 49.9606 48.4766 47.9338 48.4766 45.8203C48.4766 44.5875 47.9868 43.4051 47.1151 42.5334C46.2433 41.6616 45.061 41.1719 43.8281 41.1719C43.4769 41.1725 43.1403 41.3122 42.8918 41.5604C43.7078 41.9498 44.3671 42.6052 44.7614 43.4188C45.1557 44.2325 45.2614 45.1561 45.0614 46.0379C44.8613 46.9196 44.3673 47.7071 43.6605 48.271C42.9536 48.8348 42.076 49.1415 41.1719 49.1406C39.4107 49.1406 37.7216 48.441 36.4762 47.1956C35.2309 45.9503 34.5312 44.2612 34.5312 42.5C34.5312 40.0343 35.5107 37.6696 37.2542 35.9261C38.9977 34.1826 41.3624 33.2031 43.8281 33.2031C45.485 33.2031 47.1257 33.5295 48.6565 34.1636C50.1873 34.7976 51.5782 35.727 52.7498 36.8986C53.9214 38.0702 54.8508 39.4611 55.4849 40.9919C56.119 42.5227 56.4453 44.1634 56.4453 45.8203C56.4409 50.0459 54.7604 54.0971 51.7725 57.085C48.7846 60.0729 44.7334 61.7534 40.5078 61.7578C35.4022 61.7517 30.5075 59.7207 26.8973 56.1105C23.2871 52.5003 21.2562 47.6056 21.25 42.5C21.2562 36.5138 23.6369 30.7745 27.8698 26.5416C32.1027 22.3088 37.8419 19.928 43.8281 19.9219C50.6944 19.9298 57.2772 22.6609 62.1324 27.5161C66.9875 32.3713 69.7187 38.954 69.7266 45.8203C69.7178 53.5669 66.6366 60.9937 61.1589 66.4714C55.6812 71.9491 48.2544 75.0303 40.5078 75.0391C31.8809 75.0294 23.6101 71.5981 17.5099 65.4979C11.4097 59.3978 7.97842 51.1269 7.96875 42.5C7.9793 32.9927 11.7607 23.8779 18.4834 17.1552C25.206 10.4326 34.3209 6.65117 43.8281 6.64062C54.2157 6.65205 64.1746 10.7836 71.5197 18.1287C78.8649 25.4739 82.9964 35.4327 83.0078 45.8203Z" fill="url(#paint0_linear_2_81)"/>
<defs>
<linearGradient id="paint0_linear_2_81" x1="7.96875" y1="40.8398" x2="83.0078" y2="40.8398" gradientUnits="userSpaceOnUse">
<stop stop-color="#6D1D7D"/>
<stop offset="1" stop-color="#5F0BE8"/>
</linearGradient>
</defs>
</svg>
