<svg width="66" height="75" viewBox="0 0 66 75" fill="none" xmlns="http://www.w3.org/2000/svg">
<path d="M37.7143 16.0106V46.8749C37.7143 49.4677 35.6076 51.5624 33 51.5624C30.3924 51.5624 28.2857 49.4677 28.2857 46.8749V16.0106L22.1866 22.0751C20.3451 23.9061 17.3545 23.9061 15.5129 22.0751C13.6714 20.244 13.6714 17.2704 15.5129 15.4393L29.6558 1.37683C31.4973 -0.454224 34.4879 -0.454224 36.3295 1.37683L50.4723 15.4393C52.3138 17.2704 52.3138 20.244 50.4723 22.0751C48.6308 23.9061 45.6402 23.9061 43.7987 22.0751L37.7143 16.0106ZM33 58.5936C39.5116 58.5936 44.7857 53.3495 44.7857 46.8749H56.5714C61.7719 46.8749 66 51.079 66 56.2499V60.9374C66 66.1083 61.7719 70.3124 56.5714 70.3124H9.42857C4.22813 70.3124 0 66.1083 0 60.9374V56.2499C0 51.079 4.22813 46.8749 9.42857 46.8749H21.2143C21.2143 53.3495 26.4884 58.5936 33 58.5936ZM54.2143 62.1093C54.6786 62.1093 55.1384 62.0183 55.5673 61.8416C55.9963 61.665 56.3861 61.406 56.7144 61.0795C57.0427 60.7531 57.3032 60.3655 57.4809 59.939C57.6585 59.5125 57.75 59.0553 57.75 58.5936C57.75 58.132 57.6585 57.6748 57.4809 57.2483C57.3032 56.8217 57.0427 56.4342 56.7144 56.1077C56.3861 55.7813 55.9963 55.5223 55.5673 55.3456C55.1384 55.1689 54.6786 55.078 54.2143 55.078C53.75 55.078 53.2902 55.1689 52.8612 55.3456C52.4323 55.5223 52.0425 55.7813 51.7142 56.1077C51.3858 56.4342 51.1254 56.8217 50.9477 57.2483C50.77 57.6748 50.6786 58.132 50.6786 58.5936C50.6786 59.0553 50.77 59.5125 50.9477 59.939C51.1254 60.3655 51.3858 60.7531 51.7142 61.0795C52.0425 61.406 52.4323 61.665 52.8612 61.8416C53.2902 62.0183 53.75 62.1093 54.2143 62.1093Z" fill="url(#paint0_linear_2_52)"/>
<defs>
<linearGradient id="paint0_linear_2_52" x1="0" y1="35.158" x2="66" y2="35.158" gradientUnits="userSpaceOnUse">
<stop stop-color="#6D1D7D"/>
<stop offset="1" stop-color="#5F0BE8"/>
</linearGradient>
</defs>
</svg>
